<svg id="visual" viewBox="0 0 900 600" width="900" height="600" xmlns="http://www.w3.org/2000/svg" xmlns:xlink="http://www.w3.org/1999/xlink" version="1.1"><path d="M0 501L50 498L100 535L150 426L200 482L250 492L300 471L350 471L400 520L450 492L500 488L550 463L600 513L650 426L700 478L750 462L800 475L850 496L900 528L900 601L850 601L800 601L750 601L700 601L650 601L600 601L550 601L500 601L450 601L400 601L350 601L300 601L250 601L200 601L150 601L100 601L50 601L0 601Z" fill="#bb6f32" stroke-linecap="square" stroke-linejoin="bevel"></path></svg>